<?xml version="1.0" standalone="no"?>
<!DOCTYPE svg PUBLIC "-//W3C//DTD SVG 20010904//EN"
 "http://www.w3.org/TR/2001/REC-SVG-20010904/DTD/svg10.dtd">
<svg version="1.0" xmlns="http://www.w3.org/2000/svg"
 width="260.000000pt" height="260.000000pt" viewBox="0 0 260.000000 260.000000"
 preserveAspectRatio="xMidYMid meet">
<metadata>
Created by potrace 1.11, written by Peter Selinger 2001-2013
</metadata>
<g transform="translate(0.000000,260.000000) scale(0.100000,-0.100000)"
fill="#000000" stroke="none">
<path d="M0 1300 l0 -1300 1300 0 1300 0 0 1300 0 1300 -1300 0 -1300 0 0
-1300z m1030 663 c23 -32 91 -128 152 -213 60 -85 111 -156 113 -158 3 -3 108
138 224 300 99 138 60 126 409 128 l243 1 -57 -78 c-93 -126 -137 -179 -131
-158 8 24 -6 50 -22 41 -7 -5 -8 -1 -4 10 6 15 8 15 24 -4 9 -12 21 -22 25
-22 4 0 -3 11 -15 24 -13 14 -20 30 -16 38 14 28 -71 -73 -158 -187 -50 -66
-94 -122 -97 -125 -3 -3 -17 -20 -29 -39 -21 -29 -25 -31 -33 -16 -6 9 -8 25
-5 34 2 10 -1 18 -8 18 -7 0 -10 -11 -8 -26 l4 -26 -14 24 -15 25 -7 -32 c-4
-20 -11 -30 -18 -25 -7 4 -8 0 -4 -13 7 -18 6 -18 -9 1 -14 19 -15 16 -12 -38
2 -39 7 -56 15 -53 7 3 10 -1 6 -10 -9 -23 -23 -16 -38 19 -8 17 -14 26 -15
20 0 -18 -20 -16 -20 1 0 7 -7 19 -15 26 -8 7 -15 28 -15 47 0 20 -4 32 -10
28 -5 -3 -10 -1 -10 5 0 7 -7 9 -16 6 -12 -5 -14 -1 -9 15 5 15 4 19 -4 15 -6
-4 -11 -19 -11 -34 0 -29 -16 -20 -22 13 -3 18 -8 15 -41 -20 -20 -22 -35 -45
-33 -51 10 -27 -29 -4 -55 32 -16 21 -32 44 -36 49 -5 6 -35 47 -67 93 -60 83
-75 90 -76 32 -1 -20 -4 -17 -15 15 -8 22 -15 41 -15 42 0 1 -11 0 -25 -2 -23
-2 -25 1 -26 39 -1 22 -3 33 -6 23 -2 -9 -9 -15 -14 -11 -5 3 -7 10 -4 15 4 5
1 9 -4 9 -6 0 -12 10 -12 23 -1 15 -4 10 -9 -13 -7 -33 -7 -33 -9 -7 -1 18 -6
27 -13 24 -7 -2 -13 -13 -12 -25 0 -12 -3 -19 -8 -16 -4 3 -8 18 -8 35 0 16
-4 29 -10 29 -5 0 -10 11 -10 25 0 18 -4 23 -15 19 -10 -4 -15 0 -15 14 0 11
6 23 13 25 6 3 -53 6 -133 6 -133 1 -150 3 -215 29 l-70 27 120 5 c66 4 186 7
267 8 l146 2 42 -57z m-153 -135 c-3 -7 -5 -2 -5 12 0 14 2 19 5 13 2 -7 2
-19 0 -25z m20 -20 c-3 -7 -5 -2 -5 12 0 14 2 19 5 13 2 -7 2 -19 0 -25z m753
-328 c0 -5 -2 -10 -4 -10 -3 0 -8 5 -11 10 -3 6 -1 10 4 10 6 0 11 -4 11 -10z
m-21 -41 c-5 -10 -15 -21 -22 -25 -8 -6 -8 -3 1 9 8 9 11 20 8 25 -3 5 1 9 9
9 10 0 11 -5 4 -18z m-591 -157 c-129 -158 -418 -501 -464 -551 -16 -16 -24
-19 -29 -10 -6 8 -4 10 5 4 10 -6 12 -4 7 9 -4 10 -3 15 3 11 6 -3 10 1 10 9
0 9 3 15 8 14 4 -2 7 2 7 7 0 6 -3 9 -7 7 -5 -1 -8 4 -8 10 0 9 -4 8 -10 -2
-5 -8 -10 -11 -10 -6 0 11 65 99 139 187 31 36 103 123 161 194 57 70 114 131
125 136 11 4 35 8 53 8 l33 1 -23 -28z m606 -10 c9 2 73 -68 156 -167 172
-208 404 -495 415 -514 11 -18 -125 56 -145 80 -29 34 -131 156 -291 349 -89
107 -171 206 -183 220 -39 45 -39 49 -1 39 19 -6 41 -9 49 -7z m-1104 -506 c0
-2 -8 -10 -17 -17 -16 -13 -17 -12 -4 4 13 16 21 21 21 13z"/>
<path d="M958 1918 c8 -9 11 -22 7 -28 -4 -6 -2 -9 4 -8 5 2 17 -6 26 -17 13
-16 12 -13 -2 13 -10 19 -25 39 -33 45 -13 10 -13 10 -2 -5z"/>
<path d="M985 1830 c3 -5 8 -10 11 -10 2 0 4 5 4 10 0 6 -5 10 -11 10 -5 0 -7
-4 -4 -10z"/>
<path d="M1031 1813 c7 -12 15 -20 18 -17 3 2 -3 12 -13 22 -17 16 -18 16 -5
-5z"/>
<path d="M574 809 c-4 -7 -3 -9 4 -5 6 3 15 -2 21 -11 6 -10 11 -13 11 -7 0
20 -27 37 -36 23z"/>
</g>
</svg>
